<?xml version="1.0" standalone="no"?>
<!DOCTYPE svg PUBLIC "-//W3C//DTD SVG 20010904//EN"
 "http://www.w3.org/TR/2001/REC-SVG-20010904/DTD/svg10.dtd">
<svg version="1.0" xmlns="http://www.w3.org/2000/svg"
 width="175.000000pt" height="175.000000pt" viewBox="0 0 175.000000 175.000000"
 preserveAspectRatio="xMidYMid meet">

<g transform="translate(0.000000,175.000000) scale(0.100000,-0.100000)"
fill="#000000" stroke="none">
<path d="M1373 1612 c-50 -55 -51 -56 -80 -42 -23 13 -122 15 -590 18 l-563 3
0 -537 c0 -465 2 -543 16 -592 l16 -55 -71 -70 -71 -69 0 -114 0 -114 114 0
115 0 63 55 c34 30 68 55 74 55 6 0 37 -11 68 -25 l57 -25 555 0 555 0 -3 542
c-3 543 -3 543 -27 611 l-24 67 62 64 61 64 0 111 0 111 -137 -1 -138 -1 -52
-56z m-473 -79 c0 -5 -19 -20 -42 -35 -53 -34 -582 -549 -615 -600 -14 -21
-30 -38 -34 -38 -10 0 -12 663 -2 673 9 10 693 9 693 0z m312 -20 c21 -8 38
-21 38 -28 0 -7 -228 -237 -506 -511 -380 -375 -508 -494 -514 -484 -13 22
-23 136 -17 195 11 111 24 127 355 455 323 320 356 346 477 382 64 18 104 16
167 -9z m328 -349 c16 -86 7 -175 -26 -242 -17 -34 -68 -97 -143 -174 -157
-164 -484 -473 -529 -502 -56 -35 -148 -66 -195 -66 -52 0 -137 29 -137 47 0
8 172 183 383 391 561 553 621 612 628 612 4 0 12 -30 19 -66z m-597 -122 c9
-43 53 -90 99 -104 22 -6 42 -18 45 -25 6 -15 -244 -273 -264 -273 -7 0 -13 9
-13 20 0 31 -36 95 -62 112 -13 9 -38 19 -56 22 -17 4 -32 11 -32 14 0 12 263
271 271 267 3 -3 9 -18 12 -33z m617 -536 c0 -178 -3 -331 -6 -340 -5 -14 -46
-16 -350 -16 -217 0 -344 4 -344 10 0 5 14 17 31 25 38 20 576 543 620 603 17
23 35 42 40 42 5 0 9 -135 9 -324z"/>
</g>
</svg>
